:FULLY-SPECIFIED
:FORCE-ALL-JOINTS-BE-3DOF
:DEGREES
340
root 9.48504 17.0137 11.5526 6.60616 9.25171 0.722743
lfemur -6.22046 7.45029 -19.3882
ltibia 52.9623 0 0
lfoot -7.8855 8.33772 0
ltoes -1.92745 0 0
rfemur -34.4872 8.39571 18.3759
rtibia 35.2887 0 0
rfoot -21.4098 -5.52162 0
rtoes -14.4268 0 0
lowerback -6.13349 -3.4856 -3.15943
upperback -1.30914 -4.42259 2.35993
thorax 2.48519 -2.25713 3.74595
lowerneck -19.5989 -5.702 -13.2423
upperneck 20.7901 -7.38408 13.7571
head 11.0086 -2.86009 6.11833
lclavicle 1.61698e-15 -5.35073e-15 0
lhumerus -29.7311 -28.3052 97.9648
lradius 29.4372 0 0
lwrist 12.0592 0 0
lhand -13.7801 -20.0053 0
lfingers 7.12502 0 0
lthumb 12.3414 9.61396 0
rclavicle 1.61698e-15 -5.35073e-15 0
rhumerus -44.9122 11.7904 -84.296
rradius 38.795 0 0
rwrist -22.754 0 0
rhand -29.76 -27.9458 0
rfingers 7.12502 0 0
rthumb -3.08567 -57.9016 0
341
root 9.46646 17.0212 11.7187 6.59071 9.2003 0.542054
lfemur -7.0177 7.49897 -19.0952
ltibia 53.9888 0 0
lfoot -7.76607 8.52158 0
ltoes -2.09318 0 0
rfemur -33.776 8.13694 18.9679
rtibia 35.2233 0 0
rfoot -21.0025 -5.06729 0
rtoes -14.2705 0 0
lowerback -6.11132 -3.39019 -3.01246
upperback -1.31167 -4.30972 2.38447
thorax 2.45386 -2.19815 3.70447
lowerneck -19.6148 -5.73104 -13.2527
upperneck 20.7714 -7.42607 13.7864
head 11.0131 -2.8761 6.12381
lclavicle 3.27444e-15 -4.88864e-15 0
lhumerus -30.369 -27.9627 98.1324
lradius 29.2253 0 0
lwrist 11.8756 0 0
lhand -13.8011 -20.0321 0
lfingers 7.12502 0 0
lthumb 12.3212 9.58836 0
rclavicle 3.27444e-15 -4.88864e-15 0
rhumerus -44.6592 11.9504 -84.3489
rradius 38.8931 0 0
rwrist -22.7954 0 0
rhand -29.7936 -27.9136 0
rfingers 7.12502 0 0
rthumb -3.11809 -57.8689 0
342
root 9.44835 17.0285 11.8842 6.57583 9.14505 0.361972
lfemur -7.81145 7.54309 -18.8061
ltibia 54.9749 0 0
lfoot -7.65216 8.70086 0
ltoes -2.25953 0 0
rfemur -33.0572 7.88363 19.5515
rtibia 35.1428 0 0
rfoot -20.5985 -4.61889 0
rtoes -14.119 0 0
lowerback -6.09102 -3.29401 -2.86622
upperback -1.31355 -4.19581 2.40911
thorax 2.42445 -2.13869 3.66359
lowerneck -19.6302 -5.75957 -13.2628
upperneck 20.7535 -7.46725 13.8146
head 11.0177 -2.89186 6.12895
lclavicle 4.91562e-15 -4.4105e-15 0
lhumerus -31.0018 -27.62 98.2948
lradius 29.0176 0 0
lwrist 11.6941 0 0
lhand -13.8194 -20.0607 0
lfingers 7.12502 0 0
lthumb 12.3035 9.56077 0
rclavicle 4.91562e-15 -4.4105e-15 0
rhumerus -44.4052 12.1075 -84.4014
rradius 38.9884 0 0
rwrist -22.8331 0 0
rhand -29.8262 -27.8794 0
rfingers 7.12502 0 0
rthumb -3.14954 -57.8344 0
343
root 9.43078 17.0355 12.0492 6.56153 9.08616 0.182792
lfemur -8.60043 7.5827 -18.5214
ltibia 55.92 0 0
lfoot -7.54381 8.87538 0
ltoes -2.42618 0 0
rfemur -32.3324 7.63608 20.1259
rtibia 35.0477 0 0
rfoot -20.1987 -4.17703 0
rtoes -13.9722 0 0
lowerback -6.07255 -3.19723 -2.72094
upperback -1.31479 -4.08108 2.43381
thorax 2.39697 -2.07886 3.62336
lowerneck -19.6451 -5.78756 -13.2726
upperneck 20.7363 -7.50755 13.8416
head 11.0222 -2.90736 6.13376
lclavicle 6.53815e-15 -3.9176e-15 0
lhumerus -31.6285 -27.2777 98.4518
lradius 28.8143 0 0
lwrist 11.515 0 0
lhand -13.8351 -20.091 0
lfingers 7.12502 0 0
lthumb 12.2884 9.53129 0
rclavicle 6.53815e-15 -3.9176e-15 0
rhumerus -44.1508 12.2613 -84.4532
rradius 39.081 0 0
rwrist -22.867 0 0
rhand -29.8577 -27.8434 0
rfingers 7.12502 0 0
rthumb -3.18002 -57.798 0
344
root 9.41379 17.0422 12.2136 6.54782 9.02384 0.0048084
lfemur -9.38338 7.61785 -18.2413
ltibia 56.8236 0 0
lfoot -7.44106 9.04495 0
ltoes -2.59283 0 0
rfemur -31.603 7.39455 20.6903
rtibia 34.9387 0 0
rfoot -19.8034 -3.74232 0
rtoes -13.8305 0 0
lowerback -6.05591 -3.10005 -2.57687
upperback -1.3154 -3.96575 2.45852
thorax 2.37141 -2.01877 3.58383
lowerneck -19.6595 -5.81496 -13.2822
upperneck 20.72 -7.54695 13.8674
head 11.0267 -2.92257 6.13824
lclavicle 8.13965e-15 -3.41122e-15 0
lhumerus -32.2482 -26.9363 98.6033
lradius 28.6158 0 0
lwrist 11.3385 0 0
lhand -13.8482 -20.123 0
lfingers 7.12502 0 0
lthumb 12.2758 9.50002 0
rclavicle 8.13965e-15 -3.41122e-15 0
rhumerus -43.8965 12.4119 -84.5044
rradius 39.1707 0 0
rwrist -22.8972 0 0
rhand -29.8882 -27.8057 0
rfingers 7.12502 0 0
rthumb -3.20948 -57.76 0
345
root 9.39745 17.0486 12.3773 6.53471 8.9583 -0.171685
lfemur -10.159 7.6486 -17.9663
ltibia 57.685 0 0
lfoot -7.34394 9.20941 0
ltoes -2.75919 0 0
rfemur -30.8704 7.15934 21.244
rtibia 34.8163 0 0
rfoot -19.4134 -3.31537 0
rtoes -13.6938 0 0
lowerback -6.04107 -3.00267 -2.43423
upperback -1.31541 -3.85006 2.4832
thorax 2.34777 -1.95856 3.54506
lowerneck -19.6733 -5.84175 -13.2914
upperneck 20.7044 -7.58538 13.892
head 11.0311 -2.93747 6.14239
lclavicle 9.71774e-15 -2.89265e-15 0
lhumerus -32.8598 -26.5965 98.749
lradius 28.4222 0 0
lwrist 11.1649 0 0
lhand -13.8587 -20.1564 0
lfingers 7.12502 0 0
lthumb 12.2656 9.46708 0
rclavicle 9.71774e-15 -2.89265e-15 0
rhumerus -43.6426 12.5588 -84.5548
rradius 39.2574 0 0
rwrist -22.9238 0 0
rhand -29.9177 -27.7664 0
rfingers 7.12502 0 0
rthumb -3.2379 -57.7204 0
346
root 9.3818 17.0546 12.5402 6.52221 8.88973 -0.346394
lfemur -10.9261 7.67499 -17.6967
ltibia 58.5037 0 0
lfoot -7.25251 9.36856 0
ltoes -2.92493 0 0
rfemur -30.1361 6.93072 21.7862
rtibia 34.6811 0 0
rfoot -19.0292 -2.89678 0
rtoes -13.5623 0 0
lowerback -6.02801 -2.90525 -2.29325
upperback -1.31482 -3.73422 2.50781
thorax 2.32605 -1.89832 3.50709
lowerneck -19.6865 -5.86788 -13.3003
upperneck 20.6896 -7.62281 13.9154
head 11.0355 -2.95204 6.14621
lclavicle 1.12701e-14 -2.36317e-15 0
lhumerus -33.4625 -26.2589 98.889
lradius 28.2337 0 0
lwrist 10.9945 0 0
lhand -13.8668 -20.1913 0
lfingers 7.12502 0 0
lthumb 12.2578 9.43256 0
rclavicle 1.12701e-14 -2.36317e-15 0
rhumerus -43.3897 12.7021 -84.6044
rradius 39.3411 0 0
rwrist -22.9468 0 0
rhand -29.946 -27.7257 0
rfingers 7.12502 0 0
rthumb -3.26525 -57.6793 0
